<svg width="561" height="120" viewBox="0 0 561 120" fill="none" xmlns="http://www.w3.org/2000/svg">
<g clip-path="url(#clip0_7_20)">
<path d="M31.784 119.832C24.616 119.832 19.1973 118.04 15.528 114.456C11.8587 110.872 10.024 105.709 10.024 98.9681V72.6001C10.024 70.4668 9.51204 68.9307 8.48804 67.9921C7.46404 66.968 6.05604 66.4561 4.26404 66.4561H0.0400391V53.4001H4.26404C6.05604 53.4001 7.46404 52.8881 8.48804 51.8641C9.51204 50.8401 10.024 49.3041 10.024 47.2561V20.8881C10.024 14.0614 11.8587 8.89871 15.528 5.40004C19.1973 1.81604 24.616 0.0240479 31.784 0.0240479H38.184V12.8241H35.496C32.3387 12.8241 29.9493 13.6774 28.328 15.3841C26.792 17.0908 26.024 19.4801 26.024 22.5521V46.8721C26.024 50.2854 25.5973 52.9308 24.744 54.8081C23.8907 56.6854 22.5253 58.0934 20.648 59.0321C18.856 59.8854 16.5093 60.5254 13.608 60.9521V58.9041C16.5093 59.2454 18.856 59.8854 20.648 60.8241C22.5253 61.7628 23.8907 63.1707 24.744 65.048C25.5973 66.9253 26.024 69.5708 26.024 72.9841V97.3041C26.024 100.376 26.792 102.765 28.328 104.472C29.9493 106.179 32.3387 107.032 35.496 107.032H38.184V119.832H31.784ZM66.4262 95.0001L96.6663 27.8001H108.954L139.29 95.0001H126.234L100.218 34.4241H105.21L79.2903 95.0001H66.4262ZM80.3463 79.4481L83.7063 69.6561H119.994L123.354 79.4481H80.3463ZM147.837 95.0001V27.8001H160.317V95.0001H147.837ZM174.749 73.3041V63.3201H201.149V73.3041H174.749ZM226.95 55.7361H260.358V66.0081H226.95V55.7361ZM227.91 84.5361H265.83V95.0001H215.43V27.8001H264.486V38.2641H227.91V84.5361ZM299.818 95.6721C294.89 95.6721 290.442 94.5841 286.474 92.4081C282.57 90.1681 279.498 87.0961 277.258 83.1921C275.018 79.2881 273.898 74.68 273.898 69.368C273.898 64.0561 275.018 59.4481 277.258 55.5441C279.498 51.6401 282.57 48.6001 286.474 46.4241C290.442 44.2481 294.89 43.1601 299.818 43.1601C304.106 43.1601 307.946 44.1201 311.338 46.0401C314.73 47.8961 317.418 50.7441 319.402 54.5841C321.386 58.4241 322.378 63.3521 322.378 69.368C322.378 75.3201 321.418 80.2481 319.498 84.1521C317.578 87.9921 314.922 90.8721 311.53 92.7921C308.138 94.7121 304.234 95.6721 299.818 95.6721ZM301.258 85.4001C304.138 85.4001 306.698 84.7601 308.938 83.4801C311.242 82.2001 313.066 80.3441 314.41 77.9121C315.818 75.4801 316.522 72.632 316.522 69.368C316.522 66.04 315.818 63.1921 314.41 60.8241C313.066 58.3921 311.242 56.5361 308.938 55.2561C306.698 53.9761 304.138 53.3361 301.258 53.3361C298.378 53.3361 295.786 53.9761 293.482 55.2561C291.242 56.5361 289.418 58.3921 288.01 60.8241C286.666 63.1921 285.994 66.04 285.994 69.368C285.994 72.632 286.666 75.4801 288.01 77.9121C289.418 80.3441 291.242 82.2001 293.482 83.4801C295.786 84.7601 298.378 85.4001 301.258 85.4001ZM316.81 95.0001V82.9041L317.29 69.2721L316.33 55.6401V23.7681H328.234V95.0001H316.81ZM365.724 95.6721C361.372 95.6721 357.532 94.8721 354.204 93.2721C350.876 91.6081 348.284 89.1121 346.428 85.784C344.572 82.3921 343.644 78.1361 343.644 73.0161V43.7361H355.644V71.3841C355.644 75.9921 356.668 79.4481 358.716 81.7521C360.828 83.9921 363.804 85.1121 367.644 85.1121C370.46 85.1121 372.892 84.5361 374.94 83.3841C377.052 82.2321 378.684 80.5041 379.836 78.2001C381.052 75.896 381.66 73.048 381.66 69.6561V43.7361H393.66V95.0001H382.236V81.1761L384.252 85.4001C382.524 88.7281 379.996 91.2881 376.668 93.0801C373.34 94.8081 369.692 95.6721 365.724 95.6721ZM411.004 95.0001V40.8561C411.004 35.4801 412.572 31.1921 415.708 27.9921C418.908 24.7281 423.452 23.0961 429.34 23.0961C431.452 23.0961 433.436 23.3201 435.292 23.7681C437.212 24.2161 438.812 24.9201 440.092 25.8801L436.828 34.9041C435.932 34.2001 434.908 33.6881 433.756 33.3681C432.604 32.9841 431.42 32.7921 430.204 32.7921C427.708 32.7921 425.82 33.4961 424.54 34.9041C423.26 36.2481 422.62 38.2961 422.62 41.0481V46.8081L423.004 52.1841V95.0001H411.004ZM402.556 53.7201V44.1201H436.732V53.7201H402.556ZM449.971 114.296C447.475 114.296 444.979 113.88 442.483 113.048C439.987 112.216 437.907 111.064 436.243 109.592L441.043 100.76C442.259 101.848 443.635 102.712 445.171 103.352C446.707 103.992 448.275 104.312 449.875 104.312C452.051 104.312 453.811 103.768 455.155 102.68C456.499 101.592 457.747 99.7681 458.899 97.2081L461.875 90.4881L462.835 89.048L482.227 43.7361H493.747L469.747 99.1281C468.147 102.968 466.355 106.008 464.371 108.248C462.451 110.488 460.275 112.056 457.843 112.952C455.475 113.848 452.851 114.296 449.971 114.296ZM460.531 96.8241L437.395 43.7361H449.875L468.691 87.9921L460.531 96.8241ZM528.482 119.832H522.082V107.032H524.77C528.013 107.032 530.402 106.179 531.938 104.472C533.56 102.765 534.37 100.376 534.37 97.3041V72.9841C534.37 69.5708 534.797 66.9253 535.65 65.048C536.589 63.1707 537.954 61.7628 539.746 60.8241C541.538 59.8854 543.842 59.2454 546.658 58.9041V60.9521C543.842 60.5254 541.538 59.8854 539.746 59.0321C537.954 58.0934 536.589 56.6854 535.65 54.8081C534.797 52.9308 534.37 50.2854 534.37 46.8721V22.5521C534.37 19.4801 533.56 17.0908 531.938 15.3841C530.402 13.6774 528.013 12.8241 524.77 12.8241H522.082V0.0240479H528.482C535.736 0.0240479 541.197 1.81604 544.866 5.40004C548.536 8.89871 550.37 14.0614 550.37 20.8881V47.2561C550.37 49.3041 550.882 50.8401 551.906 51.8641C552.93 52.8881 554.296 53.4001 556.002 53.4001H560.354V66.4561H556.002C554.296 66.4561 552.93 66.968 551.906 67.9921C550.882 68.9307 550.37 70.4668 550.37 72.6001V98.9681C550.37 105.709 548.536 110.872 544.866 114.456C541.197 118.04 535.736 119.832 528.482 119.832Z" fill="white"/>
</g>
<defs>
<clipPath id="clip0_7_20">
<rect width="561" height="120" fill="white"/>
</clipPath>
</defs>
</svg>
