<svg width="222" height="47" viewBox="0 0 222 47" fill="none" xmlns="http://www.w3.org/2000/svg">
<g clip-path="url(#clip0_51_21)">
<path d="M12.5776 46.9342C9.74107 46.9342 7.59677 46.2323 6.14475 44.8286C4.69273 43.4249 3.9667 41.4027 3.9667 38.7625V28.435C3.9667 27.5995 3.76409 26.9979 3.35887 26.6302C2.95365 26.2291 2.39647 26.0286 1.68734 26.0286H0.0158081V20.915H1.68734C2.39647 20.915 2.95365 20.7145 3.35887 20.3134C3.76409 19.9123 3.9667 19.3107 3.9667 18.5086V8.18113C3.9667 5.50734 4.69273 3.48531 6.14475 2.115C7.59677 0.711264 9.74107 0.00939941 12.5776 0.00939941H15.1102V5.02273H14.0465C12.7971 5.02273 11.8516 5.35694 11.21 6.0254C10.6022 6.69386 10.2982 7.62967 10.2982 8.83287V18.3582C10.2982 19.6951 10.1294 20.7312 9.79172 21.4665C9.45405 22.2017 8.91373 22.7532 8.17085 23.1209C7.46171 23.4551 6.53307 23.7057 5.38496 23.8729V23.0707C6.53307 23.2044 7.46171 23.4551 8.17085 23.8227C8.91373 24.1904 9.45405 24.7419 9.79172 25.4771C10.1294 26.2124 10.2982 27.2485 10.2982 28.5854V38.1107C10.2982 39.3139 10.6022 40.2496 11.21 40.9182C11.8516 41.5868 12.7971 41.9209 14.0465 41.9209H15.1102V46.9342H12.5776ZM26.2863 37.2083L38.253 10.8883H43.1155L55.1201 37.2083H49.9535L39.6584 13.4827H41.6339L31.3769 37.2083H26.2863ZM31.7948 31.1171L33.1244 27.2819H47.4842L48.8139 31.1171H31.7948ZM58.5023 37.2083V10.8883H63.4409V37.2083H58.5023ZM69.152 28.7107V24.8003H79.599V28.7107H69.152ZM89.8091 21.8299H103.029V25.8531H89.8091V21.8299ZM90.189 33.1099H105.195V37.2083H85.2504V10.8883H104.663V14.9867H90.189V33.1099ZM118.645 37.4715C116.694 37.4715 114.934 37.0454 113.364 36.1931C111.819 35.3158 110.603 34.1126 109.717 32.5835C108.831 31.0545 108.387 29.2497 108.387 27.1691C108.387 25.0886 108.831 23.2838 109.717 21.7547C110.603 20.2257 111.819 19.035 113.364 18.1827C114.934 17.3305 116.694 16.9043 118.645 16.9043C120.341 16.9043 121.861 17.2803 123.203 18.0323C124.546 18.7593 125.609 19.8747 126.394 21.3787C127.179 22.8827 127.572 24.8129 127.572 27.1691C127.572 29.5003 127.192 31.4305 126.432 32.9595C125.673 34.4635 124.622 35.5915 123.279 36.3435C121.937 37.0955 120.392 37.4715 118.645 37.4715ZM119.214 33.4483C120.354 33.4483 121.367 33.1977 122.254 32.6963C123.165 32.195 123.887 31.4681 124.419 30.5155C124.976 29.563 125.255 28.4475 125.255 27.1691C125.255 25.8657 124.976 24.7502 124.419 23.8227C123.887 22.8702 123.165 22.1433 122.254 21.6419C121.367 21.1406 120.354 20.8899 119.214 20.8899C118.075 20.8899 117.049 21.1406 116.137 21.6419C115.251 22.1433 114.529 22.8702 113.972 23.8227C113.44 24.7502 113.174 25.8657 113.174 27.1691C113.174 28.4475 113.44 29.563 113.972 30.5155C114.529 31.4681 115.251 32.195 116.137 32.6963C117.049 33.1977 118.075 33.4483 119.214 33.4483ZM125.369 37.2083V32.4707L125.559 27.1315L125.179 21.7923V9.30913H129.889V37.2083H125.369ZM144.725 37.4715C143.003 37.4715 141.483 37.1582 140.166 36.5315C138.849 35.8798 137.824 34.9022 137.089 33.5987C136.355 32.2702 135.987 30.6033 135.987 28.5979V17.1299H140.736V27.9587C140.736 29.7635 141.141 31.1171 141.952 32.0195C142.788 32.8969 143.965 33.3355 145.485 33.3355C146.599 33.3355 147.562 33.1099 148.372 32.6587C149.208 32.2075 149.854 31.5307 150.309 30.6283C150.791 29.7259 151.031 28.6105 151.031 27.2819V17.1299H155.78V37.2083H151.259V31.7939L152.057 33.4483C151.373 34.7518 150.373 35.7545 149.056 36.4563C147.739 37.1331 146.295 37.4715 144.725 37.4715ZM162.643 37.2083V16.0019C162.643 13.8963 163.264 12.2169 164.505 10.9635C165.771 9.68513 167.569 9.04593 169.899 9.04593C170.735 9.04593 171.52 9.13367 172.255 9.30913C173.014 9.4846 173.648 9.76033 174.154 10.1363L172.862 13.6707C172.508 13.395 172.103 13.1945 171.647 13.0691C171.191 12.9187 170.722 12.8435 170.241 12.8435C169.253 12.8435 168.506 13.1193 168 13.6707C167.493 14.1971 167.24 14.9993 167.24 16.0771V18.3331L167.392 20.4387V37.2083H162.643ZM159.3 21.0403V17.2803H172.824V21.0403H159.3ZM178.063 44.7659C177.076 44.7659 176.088 44.603 175.1 44.2771C174.112 43.9513 173.289 43.5001 172.631 42.9235L174.53 39.4643C175.012 39.8905 175.556 40.2289 176.164 40.4795C176.772 40.7302 177.392 40.8555 178.025 40.8555C178.886 40.8555 179.583 40.6425 180.115 40.2163C180.647 39.7902 181.14 39.0758 181.596 38.0731L182.774 35.4411L183.154 34.8771L190.828 17.1299H195.386L185.889 38.8251C185.256 40.3291 184.547 41.5198 183.762 42.3971C183.002 43.2745 182.141 43.8886 181.178 44.2395C180.241 44.5905 179.203 44.7659 178.063 44.7659ZM182.242 37.9227L173.087 17.1299H178.025L185.471 34.4635L182.242 37.9227ZM209.132 46.9342H206.599V41.9209H207.663C208.946 41.9209 209.892 41.5868 210.5 40.9182C211.141 40.2496 211.462 39.3139 211.462 38.1107V28.5854C211.462 27.2485 211.631 26.2124 211.968 25.4771C212.34 24.7419 212.88 24.1904 213.589 23.8227C214.298 23.4551 215.21 23.2044 216.325 23.0707V23.8729C215.21 23.7057 214.298 23.4551 213.589 23.1209C212.88 22.7532 212.34 22.2017 211.968 21.4665C211.631 20.7312 211.462 19.6951 211.462 18.3582V8.83287C211.462 7.62967 211.141 6.69386 210.5 6.0254C209.892 5.35694 208.946 5.02273 207.663 5.02273H206.599V0.00939941H209.132C212.002 0.00939941 214.164 0.711264 215.615 2.115C217.068 3.48531 217.793 5.50734 217.793 8.18113V18.5086C217.793 19.3107 217.996 19.9123 218.401 20.3134C218.807 20.7145 219.347 20.915 220.022 20.915H221.744V26.0286H220.022C219.347 26.0286 218.807 26.2291 218.401 26.6302C217.996 26.9979 217.793 27.5995 217.793 28.435V38.7625C217.793 41.4027 217.068 43.4249 215.615 44.8286C214.164 46.2323 212.002 46.9342 209.132 46.9342Z" fill="#31B058"/>
</g>
<defs>
<clipPath id="clip0_51_21">
<rect width="222" height="47" fill="white"/>
</clipPath>
</defs>
</svg>
